<mxfile host="Electron" agent="Mozilla/5.0 (X11; Linux x86_64) AppleWebKit/537.36 (KHTML, like Gecko) draw.io/28.1.2 Chrome/138.0.7204.243 Electron/37.4.0 Safari/537.36" version="28.1.2">
  <diagram name="Page-1" id="hATapF4SIjhRsOCiLjzH">
    <mxGraphModel dx="1106" dy="1203" grid="1" gridSize="10" guides="1" tooltips="1" connect="1" arrows="1" fold="1" page="1" pageScale="1" pageWidth="850" pageHeight="1100" math="0" shadow="0">
      <root>
        <mxCell id="0" />
        <mxCell id="1" parent="0" />
        <mxCell id="KVzX5n_RmKqyuTT_3drH-1" style="edgeStyle=orthogonalEdgeStyle;rounded=0;orthogonalLoop=1;jettySize=auto;html=1;exitX=0.5;exitY=1;exitDx=0;exitDy=0;entryX=0.5;entryY=0;entryDx=0;entryDy=0;" parent="1" source="KVzX5n_RmKqyuTT_3drH-2" target="KVzX5n_RmKqyuTT_3drH-3" edge="1">
          <mxGeometry relative="1" as="geometry" />
        </mxCell>
        <mxCell id="KVzX5n_RmKqyuTT_3drH-2" value="ITUKT-UI" style="rounded=0;whiteSpace=wrap;html=1;flipH=1;flipV=1;" parent="1" vertex="1">
          <mxGeometry x="50" y="190" width="120" height="60" as="geometry" />
        </mxCell>
        <mxCell id="KVzX5n_RmKqyuTT_3drH-3" value="ITUKT-API" style="rounded=0;whiteSpace=wrap;html=1;" parent="1" vertex="1">
          <mxGeometry x="50" y="310" width="120" height="60" as="geometry" />
        </mxCell>
        <mxCell id="KVzX5n_RmKqyuTT_3drH-4" value="Stamdata" style="strokeWidth=2;html=1;shape=mxgraph.flowchart.database;whiteSpace=wrap;" parent="1" vertex="1">
          <mxGeometry x="280" y="420" width="60" height="60" as="geometry" />
        </mxCell>
        <mxCell id="KVzX5n_RmKqyuTT_3drH-5" value="ITUKT-DB" style="strokeWidth=2;html=1;shape=mxgraph.flowchart.database;whiteSpace=wrap;" parent="1" vertex="1">
          <mxGeometry x="40" y="420" width="60" height="60" as="geometry" />
        </mxCell>
        <mxCell id="KVzX5n_RmKqyuTT_3drH-6" style="edgeStyle=orthogonalEdgeStyle;rounded=0;orthogonalLoop=1;jettySize=auto;html=1;exitX=0;exitY=0.5;exitDx=0;exitDy=0;entryX=1;entryY=0.5;entryDx=0;entryDy=0;" parent="1" source="KVzX5n_RmKqyuTT_3drH-7" target="KVzX5n_RmKqyuTT_3drH-3" edge="1">
          <mxGeometry relative="1" as="geometry" />
        </mxCell>
        <mxCell id="KVzX5n_RmKqyuTT_3drH-7" value="FMK" style="rounded=0;whiteSpace=wrap;html=1;" parent="1" vertex="1">
          <mxGeometry x="250" y="310" width="120" height="60" as="geometry" />
        </mxCell>
        <mxCell id="KVzX5n_RmKqyuTT_3drH-8" style="edgeStyle=orthogonalEdgeStyle;rounded=0;orthogonalLoop=1;jettySize=auto;html=1;exitX=0.5;exitY=1;exitDx=0;exitDy=0;entryX=0.5;entryY=0;entryDx=0;entryDy=0;" parent="1" source="KVzX5n_RmKqyuTT_3drH-9" target="KVzX5n_RmKqyuTT_3drH-7" edge="1">
          <mxGeometry relative="1" as="geometry" />
        </mxCell>
        <mxCell id="KVzX5n_RmKqyuTT_3drH-9" value="EPJ" style="rounded=0;whiteSpace=wrap;html=1;flipH=1;flipV=1;" parent="1" vertex="1">
          <mxGeometry x="250" y="190" width="120" height="60" as="geometry" />
        </mxCell>
        <mxCell id="KVzX5n_RmKqyuTT_3drH-10" style="edgeStyle=orthogonalEdgeStyle;rounded=0;orthogonalLoop=1;jettySize=auto;html=1;exitX=0.5;exitY=1;exitDx=0;exitDy=0;entryX=0.5;entryY=0;entryDx=0;entryDy=0;" parent="1" source="KVzX5n_RmKqyuTT_3drH-11" target="KVzX5n_RmKqyuTT_3drH-9" edge="1">
          <mxGeometry relative="1" as="geometry" />
        </mxCell>
        <mxCell id="KVzX5n_RmKqyuTT_3drH-11" value="&lt;div&gt;&lt;br&gt;&lt;/div&gt;&lt;div&gt;&lt;br&gt;&lt;/div&gt;LÃ¦ge" style="shape=actor;whiteSpace=wrap;html=1;" parent="1" vertex="1">
          <mxGeometry x="290" y="80" width="40" height="60" as="geometry" />
        </mxCell>
        <mxCell id="KVzX5n_RmKqyuTT_3drH-12" style="edgeStyle=orthogonalEdgeStyle;rounded=0;orthogonalLoop=1;jettySize=auto;html=1;exitX=0.5;exitY=1;exitDx=0;exitDy=0;entryX=0.5;entryY=0;entryDx=0;entryDy=0;" parent="1" source="KVzX5n_RmKqyuTT_3drH-13" target="KVzX5n_RmKqyuTT_3drH-2" edge="1">
          <mxGeometry relative="1" as="geometry" />
        </mxCell>
        <mxCell id="KVzX5n_RmKqyuTT_3drH-13" value="&lt;div&gt;&lt;br&gt;&lt;/div&gt;&lt;div&gt;&lt;br&gt;&lt;/div&gt;&lt;div&gt;LMS&lt;/div&gt;" style="shape=actor;whiteSpace=wrap;html=1;" parent="1" vertex="1">
          <mxGeometry x="90" y="80" width="40" height="60" as="geometry" />
        </mxCell>
        <mxCell id="KVzX5n_RmKqyuTT_3drH-14" style="edgeStyle=orthogonalEdgeStyle;rounded=0;orthogonalLoop=1;jettySize=auto;html=1;exitX=0.25;exitY=1;exitDx=0;exitDy=0;entryX=0.5;entryY=0;entryDx=0;entryDy=0;entryPerimeter=0;" parent="1" source="KVzX5n_RmKqyuTT_3drH-3" target="KVzX5n_RmKqyuTT_3drH-5" edge="1">
          <mxGeometry relative="1" as="geometry" />
        </mxCell>
        <mxCell id="KVzX5n_RmKqyuTT_3drH-15" value="" style="endArrow=none;dashed=1;html=1;strokeWidth=3;rounded=0;" parent="1" edge="1">
          <mxGeometry width="50" height="50" relative="1" as="geometry">
            <mxPoint x="210" y="600" as="sourcePoint" />
            <mxPoint x="210" y="40" as="targetPoint" />
          </mxGeometry>
        </mxCell>
        <mxCell id="KVzX5n_RmKqyuTT_3drH-16" value="&lt;div&gt;&lt;br&gt;&lt;/div&gt;Stamdata&lt;div&gt;kopi&lt;/div&gt;" style="strokeWidth=2;html=1;shape=mxgraph.flowchart.database;whiteSpace=wrap;dashed=1;" parent="1" vertex="1">
          <mxGeometry x="120" y="420" width="60" height="60" as="geometry" />
        </mxCell>
        <mxCell id="KVzX5n_RmKqyuTT_3drH-17" style="edgeStyle=orthogonalEdgeStyle;rounded=0;orthogonalLoop=1;jettySize=auto;html=1;exitX=0.75;exitY=1;exitDx=0;exitDy=0;entryX=0.5;entryY=0;entryDx=0;entryDy=0;entryPerimeter=0;" parent="1" source="KVzX5n_RmKqyuTT_3drH-3" target="KVzX5n_RmKqyuTT_3drH-16" edge="1">
          <mxGeometry relative="1" as="geometry" />
        </mxCell>
      </root>
    </mxGraphModel>
  </diagram>
</mxfile>
